<svg xmlns="http://www.w3.org/2000/svg" xmlns:xlink="http://www.w3.org/1999/xlink" width="250" zoomAndPan="magnify" viewBox="0 0 187.5 74.999997" height="100" preserveAspectRatio="xMidYMid meet" version="1.0"><defs><g/><clipPath id="d66a2278af"><path d="M 41 14.261719 L 53 14.261719 L 53 26 L 41 26 Z M 41 14.261719 " clip-rule="nonzero"/></clipPath><clipPath id="dbd0ba60d9"><path d="M 24 14.261719 L 53 14.261719 L 53 42 L 24 42 Z M 24 14.261719 " clip-rule="nonzero"/></clipPath><clipPath id="d777bd36b7"><path d="M 8.460938 46 L 21 46 L 21 57.644531 L 8.460938 57.644531 Z M 8.460938 46 " clip-rule="nonzero"/></clipPath><clipPath id="f717bfde95"><path d="M 8.460938 14.261719 L 53 14.261719 L 53 57.644531 L 8.460938 57.644531 Z M 8.460938 14.261719 " clip-rule="nonzero"/></clipPath></defs><g fill="#fcfcfc" fill-opacity="1"><g transform="translate(69.225157, 36.878736)"><g><path d="M 9.261719 -14.113281 C 9.261719 -14.382812 9.238281 -14.515625 9.261719 -14.628906 C 9.328125 -16.542969 9.371094 -16.542969 9.261719 -19.167969 C 9.105469 -23.511719 2.960938 -23.464844 1.179688 -21.238281 C 0.757812 -17.054688 0.957031 -6.925781 1.46875 -3.226562 C 2.003906 0.734375 7.457031 0.800781 9.371094 -0.824219 C 9.261719 -2.070312 9.238281 -3.382812 9.328125 -3.851562 C 9.417969 -4.320312 10.039062 -5.34375 10.554688 -6.144531 C 11.597656 -4.097656 12.179688 -3.003906 12.644531 -2.070312 C 15.003906 2.539062 20.328125 0.199219 21.171875 -2.671875 C 20.328125 -4.898438 18.234375 -8.148438 16.609375 -11.175781 C 16.453125 -11.464844 16.453125 -11.667969 16.632812 -11.933594 C 18.054688 -14.203125 18.523438 -14.316406 19.679688 -16.71875 C 21.527344 -20.527344 17.34375 -23.289062 14.183594 -22.640625 C 13.359375 -21.394531 11.957031 -18.8125 11.242188 -17.476562 C 10.398438 -15.875 9.996094 -15.273438 9.261719 -14.113281 Z M 9.261719 -14.113281 "/></g></g></g><g fill="#fcfcfc" fill-opacity="1"><g transform="translate(90.953036, 36.878736)"><g><path d="M 1.222656 -5.144531 C 1.402344 -2.113281 2.316406 -0.625 4.40625 -0.0898438 C 6.011719 0.289062 11.820312 0.246094 13.667969 0 C 17.898438 -0.554688 18.480469 -4.40625 16.785156 -6.789062 C 14.40625 -6.789062 12.023438 -6.789062 9.640625 -6.789062 C 9.460938 -6.789062 9.285156 -6.789062 9.128906 -6.789062 C 9.128906 -7.257812 9.128906 -7.660156 9.128906 -8.148438 C 11.199219 -8.148438 11.867188 -8.105469 13 -8.148438 C 16.273438 -8.304688 17.300781 -10.886719 15.964844 -13.847656 C 14.070312 -14.449219 10.398438 -14.203125 9.105469 -14.203125 C 9.105469 -14.648438 9.105469 -15.003906 9.105469 -15.363281 C 11.976562 -15.363281 12.488281 -15.363281 13.691406 -15.363281 C 19.058594 -15.363281 18.480469 -20.882812 17.65625 -22.0625 C 13.691406 -22.375 5.296875 -22.464844 1.582031 -22.085938 C 1.136719 -18.324219 1.046875 -8.191406 1.222656 -5.144531 Z M 1.222656 -5.144531 "/></g></g></g><g fill="#b4b1f4" fill-opacity="1"><g transform="translate(109.706455, 36.878736)"><g><path d="M 12.644531 -12.691406 C 12.667969 -12.691406 12.691406 -12.691406 12.710938 -12.691406 C 12.691406 -12.691406 12.667969 -12.691406 12.644531 -12.691406 Z M 4.609375 -4.117188 C 7.125 2.09375 13.847656 0.691406 16.875 -0.3125 C 18.277344 -3.117188 20.683594 -10.84375 21.527344 -15.339844 C 22.484375 -20.394531 19.992188 -23.910156 14.605469 -21.886719 C 14.292969 -20.726562 13.425781 -15.851562 12.710938 -12.691406 C 12.289062 -10.863281 11.890625 -9.105469 11.488281 -7.347656 C 11.421875 -7.347656 11.355469 -7.347656 11.289062 -7.347656 C 10.976562 -9.90625 10.21875 -14.605469 9.261719 -19.125 C 8.214844 -24.132812 1.960938 -22.464844 1.15625 -19.613281 C 2.003906 -14.9375 3.429688 -7.058594 4.609375 -4.117188 Z M 4.609375 -4.117188 "/></g></g></g><g fill="#827cec" fill-opacity="1"><g transform="translate(133.133198, 36.878736)"><g><path d="M 9.148438 -17.898438 C 8.328125 -23.242188 3.339844 -23.242188 1.269531 -21.417969 C 0.554688 -18.703125 0.800781 -6.410156 1.179688 -4.429688 C 2.160156 0.578125 7.035156 1.3125 8.90625 -0.710938 C 9.417969 -4.453125 9.550781 -15.226562 9.148438 -17.898438 Z M 9.148438 -17.898438 "/></g></g></g><g fill="#4f46e5" fill-opacity="1"><g transform="translate(143.786925, 36.878736)"><g><path d="M 14.515625 -12.511719 C 14.492188 -12.488281 14.449219 -12.488281 14.425781 -12.46875 C 14.335938 -12.625 14.226562 -12.78125 14.136719 -12.957031 C 12.535156 -15.785156 11.777344 -17.210938 10.242188 -19.816406 C 8.125 -23.398438 3.519531 -22.796875 1.402344 -20.996094 C 1.136719 -18.367188 1.203125 -8.617188 1.378906 -3.117188 C 1.46875 -0.445312 5.8125 2.003906 9.460938 -0.980469 C 9.527344 -4.164062 9.328125 -5.65625 9.261719 -8.328125 C 9.304688 -8.328125 9.371094 -8.347656 9.417969 -8.347656 C 9.507812 -8.214844 9.617188 -8.105469 9.683594 -7.96875 C 10.195312 -7.167969 11.734375 -4.1875 12.980469 -2.472656 C 15.71875 1.246094 20.527344 0.824219 22.441406 -1.089844 C 22.777344 -5.589844 22.574219 -15.828125 22.574219 -18.546875 C 22.574219 -22.308594 17.230469 -24.132812 14.515625 -20.839844 C 14.515625 -17.765625 14.515625 -15.519531 14.515625 -12.511719 Z M 14.515625 -12.511719 "/></g></g></g><g fill="#ffffff" fill-opacity="1"><g transform="translate(58.499832, 55.207728)"><g/></g></g><g fill="#ffffff" fill-opacity="1"><g transform="translate(63.812376, 55.207728)"><g><path d="M 7.351562 -5.558594 C 7.445312 -5.640625 7.507812 -5.695312 7.5625 -5.746094 C 8.742188 -6.800781 8.785156 -8.972656 7.109375 -10.09375 C 5.84375 -10.933594 2.109375 -10.988281 0.421875 -9.988281 C 0.230469 -7.886719 0.136719 -4.757812 0.328125 -3.101562 C 0.570312 -0.917969 1.917969 0.230469 4.398438 0.230469 C 7.160156 0.230469 8.785156 -1.105469 8.816406 -3.214844 C 8.835938 -4.367188 8.289062 -5.230469 7.351562 -5.558594 Z M 3.976562 -2.964844 C 3.976562 -3.34375 3.964844 -3.722656 3.984375 -4.089844 C 4.175781 -4.28125 4.546875 -4.261719 4.757812 -4.21875 C 5.019531 -4.15625 5.21875 -3.964844 5.242188 -3.679688 C 5.273438 -3.34375 5.15625 -3.070312 4.851562 -2.941406 C 4.578125 -2.816406 4.230469 -2.824219 3.976562 -2.964844 Z M 3.902344 -6.6875 C 3.796875 -7.011719 3.816406 -7.402344 3.902344 -7.601562 C 4.058594 -7.8125 4.789062 -7.8125 4.808594 -7.234375 C 4.820312 -6.558594 4.230469 -6.496094 3.902344 -6.6875 Z M 3.902344 -6.6875 "/></g></g></g><g fill="#ffffff" fill-opacity="1"><g transform="translate(72.854891, 55.207728)"><g><path d="M 4.335938 -8.476562 C 3.945312 -11.007812 1.582031 -11.007812 0.601562 -10.144531 C 0.261719 -8.859375 0.378906 -3.035156 0.558594 -2.097656 C 1.023438 0.273438 3.332031 0.621094 4.21875 -0.335938 C 4.460938 -2.109375 4.523438 -7.214844 4.335938 -8.476562 Z M 4.335938 -8.476562 "/></g></g></g><g fill="#ffffff" fill-opacity="1"><g transform="translate(77.892567, 55.207728)"><g><path d="M 8.234375 -3.921875 C 8.320312 -3.964844 8.394531 -4.007812 8.457031 -4.058594 C 10.851562 -5.820312 9.839844 -8.828125 8.160156 -9.953125 C 6.042969 -11.367188 1.601562 -10.722656 0.683594 -9.828125 C 0.335938 -8.550781 0.464844 -3.140625 0.644531 -2.203125 C 1.097656 0.179688 3.417969 0.515625 4.292969 -0.441406 C 4.367188 -0.960938 4.429688 -1.738281 4.472656 -2.605469 C 4.480469 -2.824219 4.492188 -3.046875 4.492188 -3.238281 C 4.511719 -3.238281 4.546875 -3.246094 4.566406 -3.257812 C 4.617188 -3.183594 4.683594 -3.101562 4.734375 -3.015625 C 5.378906 -2.003906 5.683594 -1.539062 5.949219 -1.117188 C 7.191406 0.90625 9.691406 0.621094 10.027344 -1.210938 C 9.796875 -1.84375 8.730469 -3.457031 8.234375 -3.921875 Z M 6.042969 -6.621094 C 6.042969 -6.328125 5.894531 -6.125 5.566406 -6.074219 C 5.316406 -6.019531 5.050781 -6.03125 4.789062 -6.03125 C 4.746094 -6.03125 4.660156 -6.117188 4.660156 -6.160156 C 4.652344 -6.527344 4.660156 -6.695312 4.660156 -7.140625 C 5.460938 -7.507812 6.042969 -7.128906 6.042969 -6.621094 Z M 6.042969 -6.621094 "/></g></g></g><g fill="#ffffff" fill-opacity="1"><g transform="translate(88.400008, 55.207728)"><g><path d="M 4.386719 -6.6875 C 4.386719 -6.8125 4.375 -6.875 4.386719 -6.929688 C 4.417969 -7.835938 4.441406 -7.699219 4.386719 -8.941406 C 4.3125 -11 1.402344 -10.976562 0.558594 -9.921875 C 0.359375 -7.941406 0.453125 -3.28125 0.695312 -1.527344 C 0.949219 0.347656 3.53125 0.378906 4.441406 -0.390625 C 4.386719 -0.980469 4.375 -1.601562 4.417969 -1.824219 C 4.460938 -2.046875 4.757812 -2.53125 5 -2.910156 C 5.492188 -1.941406 5.769531 -1.421875 5.988281 -0.980469 C 7.109375 1.203125 9.628906 0.09375 10.027344 -1.265625 C 9.628906 -2.320312 8.636719 -3.859375 7.867188 -5.292969 C 7.792969 -5.429688 7.792969 -5.527344 7.878906 -5.652344 C 8.550781 -6.726562 8.667969 -6.8125 9.214844 -7.949219 C 10.09375 -9.753906 8.519531 -10.933594 7.023438 -10.628906 C 6.632812 -10.039062 5.757812 -8.804688 5.367188 -8.203125 C 5.039062 -7.730469 4.734375 -7.234375 4.386719 -6.6875 Z M 4.386719 -6.6875 "/></g></g></g><g fill="#ffffff" fill-opacity="1"><g transform="translate(98.68614, 55.207728)"><g><path d="M 0.253906 -3.152344 C -0.199219 -0.757812 0.992188 0.894531 3.585938 -0.0507812 C 3.734375 -0.601562 3.902344 -1.128906 4.082031 -1.570312 C 4.757812 -1.550781 5.492188 -1.59375 6.160156 -1.5625 C 6.992188 1.328125 10.207031 0.0195312 10.355469 -1.128906 C 9.953125 -3.34375 8.828125 -7.085938 8.257812 -8.476562 C 7.054688 -11.410156 3.914062 -10.746094 2.46875 -10.269531 C 1.792969 -8.953125 0.664062 -5.273438 0.253906 -3.152344 Z M 4.460938 -4.617188 C 4.660156 -5.484375 4.863281 -6.304688 5.050781 -7.140625 C 5.082031 -7.140625 5.113281 -7.140625 5.144531 -7.148438 C 5.347656 -6.304688 5.558594 -5.472656 5.757812 -4.617188 C 5.324219 -4.617188 4.914062 -4.617188 4.460938 -4.617188 Z M 4.460938 -4.617188 "/></g></g></g><g fill="#ffffff" fill-opacity="1"><g transform="translate(109.151433, 55.207728)"><g><path d="M 6.875 -5.925781 C 6.863281 -5.914062 6.84375 -5.914062 6.832031 -5.90625 C 6.792969 -5.980469 6.738281 -6.054688 6.695312 -6.136719 C 5.9375 -7.476562 5.578125 -8.152344 4.851562 -9.386719 C 3.847656 -11.082031 1.667969 -10.796875 0.664062 -9.945312 C 0.539062 -8.699219 0.570312 -4.082031 0.652344 -1.476562 C 0.695312 -0.210938 2.753906 0.949219 4.480469 -0.464844 C 4.511719 -1.972656 4.417969 -2.679688 4.386719 -3.945312 C 4.40625 -3.945312 4.441406 -3.953125 4.460938 -3.953125 C 4.503906 -3.890625 4.554688 -3.839844 4.585938 -3.773438 C 4.828125 -3.394531 5.558594 -1.984375 6.148438 -1.171875 C 7.445312 0.589844 9.722656 0.390625 10.628906 -0.515625 C 10.789062 -2.648438 10.691406 -7.496094 10.691406 -8.785156 C 10.691406 -10.566406 8.160156 -11.429688 6.875 -9.871094 C 6.875 -8.414062 6.875 -7.351562 6.875 -5.925781 Z M 6.875 -5.925781 "/></g></g></g><g fill="#ffffff" fill-opacity="1"><g transform="translate(120.52308, 55.207728)"><g/></g></g><g fill="#ffffff" fill-opacity="1"><g transform="translate(125.834771, 55.207728)"><g><path d="M 7.351562 -5.558594 C 7.445312 -5.640625 7.507812 -5.695312 7.5625 -5.746094 C 8.742188 -6.800781 8.785156 -8.972656 7.109375 -10.09375 C 5.84375 -10.933594 2.109375 -10.988281 0.421875 -9.988281 C 0.230469 -7.886719 0.136719 -4.757812 0.328125 -3.101562 C 0.570312 -0.917969 1.917969 0.230469 4.398438 0.230469 C 7.160156 0.230469 8.785156 -1.105469 8.816406 -3.214844 C 8.835938 -4.367188 8.289062 -5.230469 7.351562 -5.558594 Z M 3.976562 -2.964844 C 3.976562 -3.34375 3.964844 -3.722656 3.984375 -4.089844 C 4.175781 -4.28125 4.546875 -4.261719 4.757812 -4.21875 C 5.019531 -4.15625 5.21875 -3.964844 5.242188 -3.679688 C 5.273438 -3.34375 5.15625 -3.070312 4.851562 -2.941406 C 4.578125 -2.816406 4.230469 -2.824219 3.976562 -2.964844 Z M 3.902344 -6.6875 C 3.796875 -7.011719 3.816406 -7.402344 3.902344 -7.601562 C 4.058594 -7.8125 4.789062 -7.8125 4.808594 -7.234375 C 4.820312 -6.558594 4.230469 -6.496094 3.902344 -6.6875 Z M 3.902344 -6.6875 "/></g></g></g><g fill="#ffffff" fill-opacity="1"><g transform="translate(134.877285, 55.207728)"><g><path d="M 0.578125 -2.4375 C 0.664062 -1 1.097656 -0.296875 2.089844 -0.0429688 C 2.847656 0.136719 5.597656 0.117188 6.476562 0 C 8.476562 -0.261719 8.753906 -2.089844 7.949219 -3.214844 C 6.824219 -3.214844 5.695312 -3.214844 4.566406 -3.214844 C 4.480469 -3.214844 4.398438 -3.214844 4.324219 -3.214844 C 4.324219 -3.4375 4.324219 -3.628906 4.324219 -3.859375 C 5.304688 -3.859375 5.621094 -3.839844 6.160156 -3.859375 C 7.707031 -3.933594 8.195312 -5.15625 7.5625 -6.558594 C 6.664062 -6.84375 4.925781 -6.726562 4.3125 -6.726562 C 4.3125 -6.9375 4.3125 -7.109375 4.3125 -7.277344 C 5.671875 -7.277344 5.914062 -7.277344 6.484375 -7.277344 C 9.027344 -7.277344 8.753906 -9.890625 8.363281 -10.449219 C 6.484375 -10.597656 2.511719 -10.640625 0.75 -10.460938 C 0.539062 -8.679688 0.496094 -3.878906 0.578125 -2.4375 Z M 0.578125 -2.4375 "/></g></g></g><g fill="#ffffff" fill-opacity="1"><g transform="translate(143.751182, 55.207728)"><g><path d="M 5.28125 -6.496094 C 5.261719 -6.507812 5.230469 -6.507812 5.199219 -6.507812 C 5.15625 -6.613281 5.113281 -6.707031 5.074219 -6.8125 C 4.683594 -7.675781 4.058594 -9.300781 3.605469 -10.144531 C 3.058594 -11.179688 0.875 -11.105469 0.167969 -9.40625 C 0.917969 -7.582031 2.265625 -4.933594 3.121094 -3.300781 C 3.195312 -3.152344 3.226562 -3.070312 3.238281 -2.890625 C 3.238281 -2.753906 3.214844 -1.867188 3.226562 -1.613281 C 3.320312 0.683594 6.601562 0.335938 7.054688 -0.273438 C 7.054688 -0.433594 7.097656 -1.878906 7.085938 -2.804688 C 7.085938 -3.015625 7.140625 -3.195312 7.246094 -3.386719 C 8.171875 -5.386719 8.867188 -6.359375 9.566406 -7.984375 C 10.367188 -9.871094 8.582031 -11.019531 7.074219 -10.609375 C 6.570312 -9.636719 5.460938 -6.875 5.28125 -6.496094 Z M 5.28125 -6.496094 "/></g></g></g><g fill="#ffffff" fill-opacity="1"><g transform="translate(153.752755, 55.207728)"><g><path d="M 0.578125 -2.4375 C 0.664062 -1 1.097656 -0.296875 2.089844 -0.0429688 C 2.847656 0.136719 5.597656 0.117188 6.476562 0 C 8.476562 -0.261719 8.753906 -2.089844 7.949219 -3.214844 C 6.824219 -3.214844 5.695312 -3.214844 4.566406 -3.214844 C 4.480469 -3.214844 4.398438 -3.214844 4.324219 -3.214844 C 4.324219 -3.4375 4.324219 -3.628906 4.324219 -3.859375 C 5.304688 -3.859375 5.621094 -3.839844 6.160156 -3.859375 C 7.707031 -3.933594 8.195312 -5.15625 7.5625 -6.558594 C 6.664062 -6.84375 4.925781 -6.726562 4.3125 -6.726562 C 4.3125 -6.9375 4.3125 -7.109375 4.3125 -7.277344 C 5.671875 -7.277344 5.914062 -7.277344 6.484375 -7.277344 C 9.027344 -7.277344 8.753906 -9.890625 8.363281 -10.449219 C 6.484375 -10.597656 2.511719 -10.640625 0.75 -10.460938 C 0.539062 -8.679688 0.496094 -3.878906 0.578125 -2.4375 Z M 0.578125 -2.4375 "/></g></g></g><g fill="#ffffff" fill-opacity="1"><g transform="translate(162.626651, 55.207728)"><g><path d="M 8.234375 -3.921875 C 8.320312 -3.964844 8.394531 -4.007812 8.457031 -4.058594 C 10.851562 -5.820312 9.839844 -8.828125 8.160156 -9.953125 C 6.042969 -11.367188 1.601562 -10.722656 0.683594 -9.828125 C 0.335938 -8.550781 0.464844 -3.140625 0.644531 -2.203125 C 1.097656 0.179688 3.417969 0.515625 4.292969 -0.441406 C 4.367188 -0.960938 4.429688 -1.738281 4.472656 -2.605469 C 4.480469 -2.824219 4.492188 -3.046875 4.492188 -3.238281 C 4.511719 -3.238281 4.546875 -3.246094 4.566406 -3.257812 C 4.617188 -3.183594 4.683594 -3.101562 4.734375 -3.015625 C 5.378906 -2.003906 5.683594 -1.539062 5.949219 -1.117188 C 7.191406 0.90625 9.691406 0.621094 10.027344 -1.210938 C 9.796875 -1.84375 8.730469 -3.457031 8.234375 -3.921875 Z M 6.042969 -6.621094 C 6.042969 -6.328125 5.894531 -6.125 5.566406 -6.074219 C 5.316406 -6.019531 5.050781 -6.03125 4.789062 -6.03125 C 4.746094 -6.03125 4.660156 -6.117188 4.660156 -6.160156 C 4.652344 -6.527344 4.660156 -6.695312 4.660156 -7.140625 C 5.460938 -7.507812 6.042969 -7.128906 6.042969 -6.621094 Z M 6.042969 -6.621094 "/></g></g></g><g fill="#ffffff" fill-opacity="1"><g transform="translate(173.141952, 55.207728)"><g/></g></g><g clip-path="url(#d66a2278af)"><path fill="#fcfcfc" d="M 47.101562 14.316406 C 43.875 14.316406 41.28125 16.910156 41.28125 20.140625 C 41.28125 23.367188 43.875 25.960938 47.101562 25.960938 C 50.332031 25.960938 52.925781 23.367188 52.925781 20.140625 C 52.925781 16.910156 50.332031 14.316406 47.101562 14.316406 Z M 47.101562 22.785156 C 45.621094 22.785156 44.457031 21.621094 44.457031 20.140625 C 44.457031 18.65625 45.621094 17.492188 47.101562 17.492188 C 48.585938 17.492188 49.75 18.65625 49.75 20.140625 C 49.75 21.621094 48.585938 22.785156 47.101562 22.785156 Z M 47.101562 22.785156 " fill-opacity="1" fill-rule="nonzero"/></g><g clip-path="url(#dbd0ba60d9)"><path fill="#fcfcfc" d="M 47.101562 30.199219 C 46.042969 30.199219 45.039062 30.515625 44.140625 30.992188 L 35.882812 22.734375 C 36.304688 21.941406 36.515625 21.039062 36.515625 20.140625 C 36.515625 16.910156 33.921875 14.316406 30.695312 14.316406 C 27.464844 14.316406 24.871094 16.910156 24.871094 20.140625 C 24.871094 23.367188 27.464844 25.960938 30.695312 25.960938 C 31.804688 25.960938 32.863281 25.644531 33.761719 25.117188 L 41.96875 33.320312 C 41.546875 34.113281 41.28125 35.015625 41.28125 36.019531 C 41.28125 39.25 43.875 41.84375 47.101562 41.84375 C 50.332031 41.84375 52.925781 39.25 52.925781 36.019531 C 52.925781 32.792969 50.332031 30.199219 47.101562 30.199219 Z M 28.046875 20.140625 C 28.046875 18.65625 29.210938 17.492188 30.695312 17.492188 C 32.175781 17.492188 33.339844 18.65625 33.339844 20.140625 C 33.339844 21.621094 32.175781 22.785156 30.695312 22.785156 C 29.210938 22.785156 28.046875 21.621094 28.046875 20.140625 Z M 47.101562 38.667969 C 45.621094 38.667969 44.457031 37.503906 44.457031 36.019531 C 44.457031 34.539062 45.621094 33.375 47.101562 33.375 C 48.585938 33.375 49.75 34.539062 49.75 36.019531 C 49.75 37.503906 48.585938 38.667969 47.101562 38.667969 Z M 47.101562 38.667969 " fill-opacity="1" fill-rule="nonzero"/></g><path fill="#fcfcfc" d="M 30.695312 41.84375 C 33.921875 41.84375 36.515625 39.25 36.515625 36.019531 C 36.515625 32.792969 33.921875 30.199219 30.695312 30.199219 C 27.464844 30.199219 24.871094 32.792969 24.871094 36.019531 C 24.871094 39.25 27.464844 41.84375 30.695312 41.84375 Z M 30.695312 33.375 C 32.175781 33.375 33.339844 34.539062 33.339844 36.019531 C 33.339844 37.503906 32.175781 38.667969 30.695312 38.667969 C 29.210938 38.667969 28.046875 37.503906 28.046875 36.019531 C 28.046875 34.539062 29.210938 33.375 30.695312 33.375 Z M 30.695312 33.375 " fill-opacity="1" fill-rule="nonzero"/><g clip-path="url(#d777bd36b7)"><path fill="#fcfcfc" d="M 14.285156 57.722656 C 17.511719 57.722656 20.105469 55.128906 20.105469 51.902344 C 20.105469 48.671875 17.511719 46.078125 14.285156 46.078125 C 11.054688 46.078125 8.460938 48.671875 8.460938 51.902344 C 8.460938 55.128906 11.054688 57.722656 14.285156 57.722656 Z M 14.285156 49.253906 C 15.765625 49.253906 16.929688 50.417969 16.929688 51.902344 C 16.929688 53.382812 15.765625 54.546875 14.285156 54.546875 C 12.800781 54.546875 11.636719 53.382812 11.636719 51.902344 C 11.636719 50.417969 12.800781 49.253906 14.285156 49.253906 Z M 14.285156 49.253906 " fill-opacity="1" fill-rule="nonzero"/></g><g clip-path="url(#f717bfde95)"><path fill="#fcfcfc" d="M 47.101562 46.078125 C 44.457031 46.078125 42.179688 47.878906 41.492188 50.3125 L 36.25 50.3125 C 35.5625 47.878906 33.339844 46.078125 30.640625 46.078125 C 29.050781 46.078125 27.570312 46.714844 26.511719 47.773438 L 18.570312 39.832031 C 19.578125 38.824219 20.105469 37.503906 20.105469 36.019531 C 20.105469 33.375 18.308594 31.097656 15.871094 30.410156 L 15.871094 25.699219 C 18.308594 25.011719 20.105469 22.785156 20.105469 20.085938 C 20.105469 16.859375 17.511719 14.265625 14.285156 14.265625 C 11.054688 14.265625 8.460938 16.910156 8.460938 20.140625 C 8.460938 22.785156 10.261719 25.0625 12.695312 25.75 L 12.695312 30.460938 C 10.261719 31.097656 8.460938 33.375 8.460938 36.019531 C 8.460938 39.25 11.054688 41.84375 14.285156 41.84375 C 14.867188 41.84375 15.394531 41.738281 15.925781 41.632812 L 25.03125 50.734375 C 24.921875 51.105469 24.871094 51.476562 24.871094 51.902344 C 24.871094 55.128906 27.464844 57.722656 30.695312 57.722656 C 33.339844 57.722656 35.617188 55.925781 36.304688 53.488281 L 41.546875 53.488281 C 42.234375 55.925781 44.457031 57.722656 47.15625 57.722656 C 50.386719 57.722656 52.980469 55.128906 52.980469 51.902344 C 52.980469 48.671875 50.332031 46.078125 47.101562 46.078125 Z M 11.636719 20.140625 C 11.636719 18.65625 12.800781 17.492188 14.285156 17.492188 C 15.765625 17.492188 16.929688 18.65625 16.929688 20.140625 C 16.929688 21.621094 15.765625 22.785156 14.285156 22.785156 C 12.800781 22.785156 11.636719 21.621094 11.636719 20.140625 Z M 11.636719 36.019531 C 11.636719 34.539062 12.800781 33.375 14.285156 33.375 C 15.765625 33.375 16.929688 34.539062 16.929688 36.019531 C 16.929688 37.503906 15.765625 38.667969 14.285156 38.667969 C 12.800781 38.667969 11.636719 37.503906 11.636719 36.019531 Z M 30.695312 54.546875 C 29.210938 54.546875 28.046875 53.382812 28.046875 51.902344 C 28.046875 50.417969 29.210938 49.253906 30.695312 49.253906 C 32.175781 49.253906 33.339844 50.417969 33.339844 51.902344 C 33.339844 53.382812 32.175781 54.546875 30.695312 54.546875 Z M 47.101562 54.546875 C 45.621094 54.546875 44.457031 53.382812 44.457031 51.902344 C 44.457031 50.417969 45.621094 49.253906 47.101562 49.253906 C 48.585938 49.253906 49.75 50.417969 49.75 51.902344 C 49.75 53.382812 48.585938 54.546875 47.101562 54.546875 Z M 47.101562 54.546875 " fill-opacity="1" fill-rule="nonzero"/></g></svg>